<?xml version="1.0" encoding="utf-8"?>
<!-- Generator: Adobe Illustrator 27.0.0, SVG Export Plug-In . SVG Version: 6.00 Build 0)  -->
<svg version="1.1"
	 id="svg8" xmlns:svg="http://www.w3.org/2000/svg" xmlns:dc="http://purl.org/dc/elements/1.1/" xmlns:cc="http://creativecommons.org/ns#" xmlns:rdf="http://www.w3.org/1999/02/22-rdf-syntax-ns#"
	 xmlns="http://www.w3.org/2000/svg" xmlns:xlink="http://www.w3.org/1999/xlink" x="0px" y="0px" viewBox="0 0 107 22.7"
	 style="enable-background:new 0 0 107 22.7;" xml:space="preserve">
<style type="text/css">
	.st0{fill:#1971C2;}
</style>
<polygon id="c" points="20.8,1.7 3.7,1.7 1.5,4.1 1.5,19.1 3.8,21.4 20.9,21.4 20.9,16.2 6.7,16.2 6.7,7 20.8,7 "/>
<path id="ivit" d="M76.1,1.7H56.6V7h7.2v14.3H69V7h7L76.1,1.7L76.1,1.7z M23.2,1.8v19.5h5.2V1.8H23.2z M30.8,1.8v19.5h7.6l8.3-8.3
	V1.8h-5.2v8.3l-5.4,6V1.8H30.8z M49.1,1.8v19.5h5.2V1.8H49.1z"/>
<path id="ai" class="st0" d="M100.3,1.8v19.5h5.2V1.8H100.3z M95.6,1.8H80.8l-2.3,2.3v17.2h5.2v-7.1h8.9v7.1h5.2V4.1L95.6,1.8z
	 M92.7,8.9h-8.9V7h8.9V8.9z"/>
<path id="accent" class="st0" d="M46.7,16.2v5.1h-5.1"/>
</svg>
